HIERARCHY
ROOT Hips
{
	OFFSET 0.00 0.00 0.00
	CHANNELS 6 Xposition Yposition Zposition Xrotation Yrotation Zrotation
	JOINT LeftUpLeg
	{
		OFFSET 2.83210 0.00000 0.00000
		CHANNELS 3 Xrotation Yrotation Zrotation
		JOINT LeftLeg
		{
			OFFSET 0.00000 -16.27150 0.00000
			CHANNELS 3 Xrotation Yrotation Zrotation
			JOINT LeftFoot
			{
				OFFSET 0.00000 -14.95190 0.00000
				CHANNELS 3 Xrotation Yrotation Zrotation
				JOINT LeftToeBase
				{
					OFFSET 0.00000 -1.07991 4.03030
					CHANNELS 3 Xrotation Yrotation Zrotation
					End Site
					{
						OFFSET 0.00000 0.00000 2.95275
					}
				}
			}
		}
	}
	JOINT RightUpLeg
	{
		OFFSET -2.83210 0.00000 0.00000
		CHANNELS 3 Xrotation Yrotation Zrotation
		JOINT RightLeg
		{
			OFFSET 0.00000 -16.27150 0.00000
			CHANNELS 3 Xrotation Yrotation Zrotation
			JOINT RightFoot
			{
				OFFSET 0.00000 -14.95190 0.00000
				CHANNELS 3 Xrotation Yrotation Zrotation
				JOINT RightToeBase
				{
					OFFSET 0.00000 -1.07991 4.03030
					CHANNELS 3 Xrotation Yrotation Zrotation
					End Site
					{
						OFFSET 0.00000 0.00000 2.95275
					}
				}
			}
		}
	}
	JOINT Spine
	{
		OFFSET 0.00000 0.03937 0.00000
		CHANNELS 3 Xrotation Yrotation Zrotation
		JOINT Spine1
		{
			OFFSET 0.00000 8.01054 0.00000
			CHANNELS 3 Xrotation Yrotation Zrotation
			JOINT Neck
			{
				OFFSET 0.00000 8.21888 0.00000
				CHANNELS 3 Xrotation Yrotation Zrotation
				JOINT Head
				{
					OFFSET 0.00000 3.25664 0.00000
					CHANNELS 3 Xrotation Yrotation Zrotation
					End Site
					{
						OFFSET 0.00000 4.52755 0.00000
					}
				}
			}
			JOINT LeftShoulder
			{
				OFFSET 0.00000 8.21888 0.00000
				CHANNELS 3 Xrotation Yrotation Zrotation
				JOINT LeftArm
				{
					OFFSET 6.52904 -0.00002 0.00000
					CHANNELS 3 Xrotation Yrotation Zrotation
					JOINT LeftForeArm
					{
						OFFSET 10.44840 -0.00004 0.00000
						CHANNELS 3 Xrotation Yrotation Zrotation
						JOINT LeftHand
						{
							OFFSET 8.94727 -0.00003 0.00000
							CHANNELS 3 Xrotation Yrotation Zrotation
							JOINT LeftHandThumb
							{
								OFFSET 0.00000 0.00000 0.00000
								CHANNELS 3 Xrotation Yrotation Zrotation
								End Site
								{
									OFFSET 0.00000 0.00000 3.93700
								}
							}
							JOINT L_Wrist_End
							{
								OFFSET 3.93700 -0.00001 0.00000
								CHANNELS 3 Xrotation Yrotation Zrotation
							}
						}
					}
				}
			}
			JOINT RightShoulder
			{
				OFFSET 0.00000 8.21888 0.00000
				CHANNELS 3 Xrotation Yrotation Zrotation
				JOINT RightArm
				{
					OFFSET -6.52904 -0.00002 0.00000
					CHANNELS 3 Xrotation Yrotation Zrotation
					JOINT RightForeArm
					{
						OFFSET -10.44840 -0.00004 0.00000
						CHANNELS 3 Xrotation Yrotation Zrotation
						JOINT RightHand
						{
							OFFSET -8.94727 -0.00003 0.00000
							CHANNELS 3 Xrotation Yrotation Zrotation
							JOINT RightHandThumb
							{
								OFFSET 0.00000 0.00000 0.00000
								CHANNELS 3 Xrotation Yrotation Zrotation
								End Site
								{
									OFFSET 0.00000 0.00000 3.93700
								}
							}
							JOINT R_Wrist_End
							{
								OFFSET -5.39369 -0.00002 0.00000
								CHANNELS 3 Xrotation Yrotation Zrotation
							}
						}
					}
				}
			}
		}
	}
}
MOTION
Frames: 6
Frame Time: 0.066664
 -9.6455 32.7821 -2.4188 65.6551 83.7880 -65.1320 -2.1845 17.2135 6.9202 29.9615 -0.0000 0.0000 -3.6814 12.3934 -10.8446 3.6401 0.0000 0.0000 -13.6777 -7.9513 6.3973 8.1593 -0.0000 0.0000 -3.5450 -29.9806 10.0025 19.8799 0.0000 0.0000 -9.8320 1.3308 -7.0536 13.2797 -6.9597 11.6635 -25.4992 18.4653 1.9031 -0.8520 -37.0523 -13.8739 11.2331 13.4911 2.4089 -32.9069 -43.9382 -42.8180 -0.0002 -47.0288 -0.0001 10.8722 -9.9735 -4.4079 -0.0000 -0.0000 0.0000 -0.0000 -0.0000 0.0000 17.2792 -20.5551 -1.4395 -1.6989 26.0759 44.7185 -0.0000 12.8571 0.0000 13.5045 -0.6816 -19.3015 -0.0000 0.0000 -0.0000 -0.0000 0.0000 -0.0000
 -11.4486 32.7199 -3.3637 80.4131 80.7517 -77.9589 1.8574 9.1632 -0.2763 12.2260 0.0000 -0.0000 -8.0588 20.1395 -9.8685 11.9805 0.0000 0.0000 -21.0117 -8.0551 2.6560 8.3546 -0.0000 0.0000 0.0193 -29.6745 11.6974 19.5800 -0.0000 0.0000 -9.7855 0.0545 -8.5689 13.5176 -7.6456 13.3836 -27.0078 19.6683 2.3858 -4.4955 -36.5487 -16.4802 9.3660 11.4972 3.2274 -42.2342 -43.3679 -47.8691 -0.0002 -48.9885 -0.0001 13.1892 -10.5211 -5.7562 -0.0000 0.0000 -0.0000 -0.0000 0.0000 -0.0000 17.0402 -21.3566 -1.2370 -0.8012 25.3745 42.6309 -0.0001 13.4109 0.0000 15.4697 -0.6780 -19.1905 -0.0000 0.0000 -0.0000 -0.0000 0.0000 -0.0000
 -13.5283 32.5715 -4.0463 80.8438 77.5286 -77.7262 -2.7563 14.3830 -2.6325 9.1922 -0.0000 0.0000 -11.7700 18.8495 -8.0109 16.7247 0.0000 0.0000 -25.0269 -6.4331 1.3523 2.1379 -0.0000 0.0000 7.5936 -29.4087 16.0441 20.1640 -0.0000 0.0000 -8.8231 -0.3490 -8.8059 12.6707 -7.9762 13.1951 -26.1334 19.4016 1.2373 -7.3720 -36.2715 -14.6193 8.2117 10.3128 5.0981 -49.1608 -43.7791 -52.4158 -0.0002 -46.9846 -0.0001 13.8545 -12.6334 -6.1900 -0.0000 0.0000 -0.0000 -0.0000 0.0000 -0.0000 16.6569 -21.4356 -1.3389 -1.8331 25.6052 42.6544 -0.0001 15.0573 0.0000 16.4611 -0.5595 -20.9483 -0.0000 0.0000 -0.0000 -0.0000 0.0000 -0.0000
 -15.4022 32.4613 -4.6182 85.5066 75.5813 -80.1172 -9.8949 12.1320 -5.4579 13.9252 0.0000 0.0000 -14.2452 21.4647 -7.5263 18.0304 -0.0000 0.0000 -26.3352 -6.5323 -1.3701 -4.4434 0.0000 -0.0000 12.9050 -25.1628 17.3992 19.7583 0.0000 0.0000 -8.4461 -0.5337 -9.2161 12.5981 -8.8778 10.1814 -24.2586 18.8126 0.3939 -10.4255 -36.9046 -12.9475 8.1963 8.3128 6.4516 -51.8855 -43.4324 -53.9701 -0.0002 -43.1361 -0.0001 15.8428 -5.6322 -9.3691 -0.0000 -0.0000 0.0000 -0.0000 -0.0000 0.0000 16.3924 -21.5077 -0.2864 -4.5763 26.5378 42.9323 -0.0001 16.1174 0.0000 17.4201 -0.3302 -22.8527 -0.0000 0.0000 -0.0000 -0.0000 0.0000 -0.0000
 -16.9743 32.5807 -4.7936 75.3716 74.1110 -71.1380 -17.6287 15.1209 -3.2890 21.6552 0.0000 0.0000 -14.2144 22.0566 -6.2864 17.8656 -0.0000 0.0000 -25.7659 -4.3988 0.3453 -4.4925 -0.0000 -0.0000 13.0953 -19.6783 18.3559 19.4844 0.0000 -0.0000 -7.3165 0.1521 -8.4872 12.2549 -8.1951 9.7339 -25.5893 19.2822 0.7930 -9.3596 -36.5398 -12.5641 7.8043 8.0037 7.4929 -47.7053 -40.7433 -52.7218 -0.0001 -35.1088 -0.0000 18.2737 -8.2606 -12.3631 -0.0000 -0.0000 0.0000 -0.0000 -0.0000 0.0000 15.6578 -20.3803 -0.7040 -6.4243 28.2142 41.7422 -0.0001 17.9858 0.0000 18.4835 0.1917 -22.3442 -0.0000 0.0000 -0.0000 -0.0000 0.0000 -0.0000
 -18.5392 32.7371 -4.8081 67.0539 70.2605 -65.3876 -25.3863 19.0511 1.2737 24.3862 -0.0000 0.0000 -12.7827 20.8812 -6.9686 17.1556 -0.0000 0.0000 -26.6114 0.6918 2.6100 -1.2919 0.0000 0.0000 8.2500 -16.5622 18.1139 19.2469 -0.0000 0.0000 -6.8759 0.9744 -8.0210 10.9058 -6.9471 11.7342 -26.7111 20.8621 2.1713 -11.1663 -36.2797 -14.8587 8.4724 9.1905 6.9713 -34.5912 -43.0029 -43.3305 -0.0001 -25.8779 -0.0000 17.4741 -11.8045 -10.7631 -0.0000 -0.0000 0.0000 -0.0000 -0.0000 0.0000 15.6108 -18.8054 -0.4239 -10.2408 29.2576 37.8156 -0.0001 19.9459 0.0000 19.0548 -0.7957 -21.5187 -0.0000 0.0000 -0.0000 -0.0000 0.0000 -0.0000
